<?xml version="1.0" encoding="UTF-8" standalone="no"?>
<!DOCTYPE svg PUBLIC "-//W3C//DTD SVG 1.1//EN" "http://www.w3.org/Graphics/SVG/1.1/DTD/svg11.dtd">
<svg width="100%" height="100%" viewBox="0 0 256 256" version="1.1" xmlns="http://www.w3.org/2000/svg" xmlns:xlink="http://www.w3.org/1999/xlink" xml:space="preserve" xmlns:serif="http://www.serif.com/" style="fill-rule:evenodd;clip-rule:evenodd;stroke-linejoin:round;stroke-miterlimit:2;">
    <path d="M127.932,238C188.006,238 238,188.111 238,128C238,67.888 187.87,18 127.796,18C67.857,18 18,67.888 18,128C18,188.111 67.994,238 127.932,238Z" style="fill:#e60012;"/>
    <g>
        <path d="M127.762,167.494C125.067,167.494 122.69,166.384 120.47,164.163L77.672,119.911C75.928,118.008 74.818,115.152 74.818,112.932C74.818,107.222 78.623,103.256 84.171,103.256C87.024,103.256 89.402,104.05 90.987,106.111L96.376,112.139L119.678,138.944L117.934,115.311L117.934,59.321C117.934,53.611 121.897,49.487 127.762,49.487C133.31,49.487 137.431,53.611 137.431,59.321L137.431,115.311L136.005,138.786L158.989,112.297L164.854,106.111C166.756,104.05 169.293,103.256 171.988,103.256C177.377,103.256 181.181,107.539 181.181,112.932C181.181,115.47 180.389,117.69 178.17,120.069L135.212,164.163C133.152,166.226 130.615,167.494 127.762,167.494Z" style="fill:#fff;"/>
        <path d="M79.415,196.045C73.867,196.045 69.904,191.921 69.904,186.211C69.904,180.659 73.867,176.535 79.415,176.535L176.585,176.535C182.133,176.535 186.095,180.659 186.095,186.211C186.095,191.921 182.133,196.045 176.585,196.045L79.415,196.045Z" style="fill:#fff;"/>
    </g>
    <path d="M128,0C198.645,0 256,57.355 256,128C256,198.645 198.645,256 128,256C57.355,256 0,198.645 0,128C0,57.355 57.355,0 128,0ZM128,22C69.497,22 22,69.497 22,128C22,186.503 69.497,234 128,234C186.503,234 234,186.503 234,128C234,69.497 186.503,22 128,22Z" style="fill:#fff;"/>
</svg>
